# MagicaVoxel @ ephtracy

# material
mtllib CubeArrangement.mtl

# normals
vn -1 0 0
vn 1 0 0
vn 0 0 1
vn 0 0 -1
vn 0 -1 0
vn 0 1 0

# texcoords
vt 0.279297 0.5
vt 0.560547 0.5

# verts
v -8.5 0 -3.5
v -8.5 1 -3.5
v -8.5 1 -4.5
v -8.5 0 -4.5
v -8.5 0 -2.5
v -8.5 1 -2.5
v -4.5 0 -3.5
v -4.5 1 -3.5
v -4.5 1 -4.5
v -4.5 0 -4.5
v -4.5 0 -2.5
v -4.5 1 -2.5
v -1.5 0 -2.5
v -1.5 1 -2.5
v -1.5 1 -3.5
v -1.5 0 -3.5
v -0.5 0 -3.5
v -0.5 1 -3.5
v -0.5 1 -4.5
v -0.5 0 -4.5
v 2.5 0 -2.5
v 2.5 1 -2.5
v 2.5 1 -3.5
v 2.5 0 -3.5
v 7.5 0 -3.5
v 7.5 1 -3.5
v 7.5 1 -4.5
v 7.5 0 -4.5
v 6.5 0 -2.5
v 6.5 1 -2.5
v 6.5 1 -3.5
v 6.5 0 -3.5
v 7.5 1 -2.5
v 7.5 2 -2.5
v 7.5 2 -3.5
v 12.5 0 -2.5
v 12.5 1 -2.5
v 12.5 1 -3.5
v 12.5 0 -3.5
v 11.5 1 -2.5
v 11.5 2 -2.5
v 11.5 2 -3.5
v 11.5 1 -3.5
v 12.5 2 -2.5
v 12.5 3 -2.5
v 12.5 3 -3.5
v 12.5 2 -3.5
v 17.5 0 -2.5
v 17.5 1 -2.5
v 17.5 1 -3.5
v 17.5 0 -3.5
v 16.5 1 -2.5
v 16.5 2 -2.5
v 16.5 2 -3.5
v 16.5 1 -3.5
v 17.5 2 -3.5
v 17.5 2 -4.5
v 17.5 1 -4.5
v 17.5 2 -2.5
v 17.5 3 -2.5
v 17.5 3 -3.5
v -14.5 0 -2.5
v -14.5 1 -2.5
v -14.5 1 -3.5
v -14.5 0 -3.5
v -15.5 1 -2.5
v -15.5 2 -2.5
v -15.5 2 -3.5
v -15.5 1 -3.5
v -14.5 1 -1.5
v -14.5 2 -1.5
v -14.5 2 -2.5
v -14.5 2 -3.5
v -14.5 2 -4.5
v -14.5 1 -4.5
v -14.5 3 -2.5
v -14.5 3 -3.5
v -7.5 0 -3.5
v -7.5 0 -4.5
v -7.5 1 -4.5
v -7.5 1 -3.5
v -7.5 0 -2.5
v -7.5 1 -2.5
v -3.5 0 -3.5
v -3.5 0 -4.5
v -3.5 1 -4.5
v -3.5 1 -3.5
v -2.5 0 -2.5
v -2.5 0 -3.5
v -2.5 1 -3.5
v -2.5 1 -2.5
v 1.5 0 -2.5
v 1.5 0 -3.5
v 1.5 1 -3.5
v 1.5 1 -2.5
v 0.5 0 -3.5
v 0.5 0 -4.5
v 0.5 1 -4.5
v 0.5 1 -3.5
v 5.5 0 -2.5
v 5.5 0 -3.5
v 5.5 1 -3.5
v 5.5 1 -2.5
v 8.5 0 -3.5
v 8.5 0 -4.5
v 8.5 1 -4.5
v 8.5 1 -3.5
v 9.5 0 -2.5
v 9.5 0 -3.5
v 9.5 1 -3.5
v 9.5 1 -2.5
v 8.5 1 -2.5
v 8.5 2 -3.5
v 8.5 2 -2.5
v 13.5 0 -2.5
v 13.5 0 -3.5
v 13.5 1 -3.5
v 13.5 1 -2.5
v 14.5 1 -2.5
v 14.5 1 -3.5
v 14.5 2 -3.5
v 14.5 2 -2.5
v 13.5 2 -2.5
v 13.5 2 -3.5
v 13.5 3 -3.5
v 13.5 3 -2.5
v 18.5 0 -2.5
v 18.5 0 -3.5
v 18.5 1 -3.5
v 18.5 1 -2.5
v 19.5 1 -2.5
v 19.5 1 -3.5
v 19.5 2 -3.5
v 19.5 2 -2.5
v 18.5 1 -4.5
v 18.5 2 -4.5
v 18.5 2 -3.5
v 18.5 2 -2.5
v 18.5 3 -3.5
v 18.5 3 -2.5
v -13.5 0 -2.5
v -13.5 0 -3.5
v -13.5 1 -3.5
v -13.5 1 -2.5
v -13.5 1 -1.5
v -13.5 2 -2.5
v -13.5 2 -1.5
v -13.5 1 -4.5
v -13.5 2 -4.5
v -13.5 2 -3.5
v -12.5 1 -2.5
v -12.5 1 -3.5
v -12.5 2 -3.5
v -12.5 2 -2.5
v -13.5 3 -3.5
v -13.5 3 -2.5
v -3.5 0 -2.5
v -3.5 1 -2.5
v -0.5 0 -2.5
v -0.5 1 -2.5
v 0.5 0 -2.5
v 0.5 1 -2.5
v 3.5 0 -2.5
v 4.5 0 -2.5
v 4.5 1 -2.5
v 3.5 1 -2.5
v 7.5 0 -2.5
v 8.5 0 -2.5
v 3.5 0 -3.5
v 3.5 1 -3.5
v 4.5 1 -3.5
v 4.5 0 -3.5

# faces

usemtl palette

f 1/2/1 2/2/1 3/2/1 4/2/1

f 5/1/1 6/1/1 2/1/1 1/1/1

f 7/2/1 8/2/1 9/2/1 10/2/1

f 11/1/1 12/1/1 8/1/1 7/1/1

f 13/2/1 14/2/1 15/2/1 16/2/1

f 17/2/1 18/2/1 19/2/1 20/2/1

f 21/2/1 22/2/1 23/2/1 24/2/1

f 25/2/1 26/2/1 27/2/1 28/2/1

f 29/2/1 30/2/1 31/2/1 32/2/1

f 33/2/1 34/2/1 35/2/1 26/2/1

f 36/2/1 37/2/1 38/2/1 39/2/1

f 40/2/1 41/2/1 42/2/1 43/2/1

f 44/2/1 45/2/1 46/2/1 47/2/1

f 48/2/1 49/2/1 50/2/1 51/2/1

f 52/2/1 53/2/1 54/2/1 55/2/1

f 50/2/1 56/2/1 57/2/1 58/2/1

f 59/2/1 60/2/1 61/2/1 56/2/1

f 62/2/1 63/2/1 64/2/1 65/2/1

f 66/2/1 67/2/1 68/2/1 69/2/1

f 70/2/1 71/2/1 72/2/1 63/2/1

f 64/2/1 73/2/1 74/2/1 75/2/1

f 72/2/1 76/2/1 77/2/1 73/2/1

f 78/2/2 79/2/2 80/2/2 81/2/2

f 82/1/2 78/1/2 81/1/2 83/1/2

f 84/2/2 85/2/2 86/2/2 87/2/2

f 88/2/2 89/2/2 90/2/2 91/2/2

f 92/2/2 93/2/2 94/2/2 95/2/2

f 96/2/2 97/2/2 98/2/2 99/2/2

f 100/2/2 101/2/2 102/2/2 103/2/2

f 104/2/2 105/2/2 106/2/2 107/2/2

f 108/2/2 109/2/2 110/2/2 111/2/2

f 112/2/2 107/2/2 113/2/2 114/2/2

f 115/2/2 116/2/2 117/2/2 118/2/2

f 119/2/2 120/2/2 121/2/2 122/2/2

f 123/2/2 124/2/2 125/2/2 126/2/2

f 127/2/2 128/2/2 129/2/2 130/2/2

f 131/2/2 132/2/2 133/2/2 134/2/2

f 129/2/2 135/2/2 136/2/2 137/2/2

f 138/2/2 137/2/2 139/2/2 140/2/2

f 141/2/2 142/2/2 143/2/2 144/2/2

f 145/2/2 144/2/2 146/2/2 147/2/2

f 143/2/2 148/2/2 149/2/2 150/2/2

f 151/2/2 152/2/2 153/2/2 154/2/2

f 146/2/2 150/2/2 155/2/2 156/2/2

f 5/1/3 82/1/3 83/1/3 6/1/3

f 11/1/3 157/1/3 158/1/3 12/1/3

f 157/2/3 88/2/3 91/2/3 158/2/3

f 13/2/3 159/2/3 160/2/3 14/2/3

f 159/1/3 161/1/3 162/1/3 160/1/3

f 161/2/3 92/2/3 95/2/3 162/2/3

f 163/1/3 164/1/3 165/1/3 166/1/3

f 21/2/3 163/2/3 166/2/3 22/2/3

f 164/2/3 100/2/3 103/2/3 165/2/3

f 29/2/3 167/2/3 33/2/3 30/2/3

f 167/1/3 168/1/3 112/1/3 33/1/3

f 168/2/3 108/2/3 111/2/3 112/2/3

f 33/2/3 112/2/3 114/2/3 34/2/3

f 36/2/3 115/2/3 118/2/3 37/2/3

f 37/1/3 118/1/3 123/1/3 44/1/3

f 118/2/3 119/2/3 122/2/3 123/2/3

f 40/2/3 37/2/3 44/2/3 41/2/3

f 44/2/3 123/2/3 126/2/3 45/2/3

f 48/2/3 127/2/3 130/2/3 49/2/3

f 49/1/3 130/1/3 138/1/3 59/1/3

f 52/2/3 49/2/3 59/2/3 53/2/3

f 130/2/3 131/2/3 134/2/3 138/2/3

f 59/2/3 138/2/3 140/2/3 60/2/3

f 62/2/3 141/2/3 144/2/3 63/2/3

f 66/2/3 63/2/3 72/2/3 67/2/3

f 70/2/3 145/2/3 147/2/3 71/2/3

f 144/2/3 151/2/3 154/2/3 146/2/3

f 72/2/3 146/2/3 156/2/3 76/2/3

f 4/2/4 3/2/4 80/2/4 79/2/4

f 10/2/4 9/2/4 86/2/4 85/2/4

f 84/2/4 87/2/4 90/2/4 89/2/4

f 16/2/4 15/2/4 18/2/4 17/2/4

f 96/2/4 99/2/4 94/2/4 93/2/4

f 20/2/4 19/2/4 98/2/4 97/2/4

f 169/1/4 170/1/4 171/1/4 172/1/4

f 24/2/4 23/2/4 170/2/4 169/2/4

f 172/2/4 171/2/4 102/2/4 101/2/4

f 28/2/4 27/2/4 106/2/4 105/2/4

f 32/2/4 31/2/4 26/2/4 25/2/4

f 104/2/4 107/2/4 110/2/4 109/2/4

f 26/2/4 35/2/4 113/2/4 107/2/4

f 39/2/4 38/2/4 117/2/4 116/2/4

f 38/1/4 47/1/4 124/1/4 117/1/4

f 117/2/4 124/2/4 121/2/4 120/2/4

f 43/2/4 42/2/4 47/2/4 38/2/4

f 47/2/4 46/2/4 125/2/4 124/2/4

f 51/2/4 50/2/4 129/2/4 128/2/4

f 55/2/4 54/2/4 56/2/4 50/2/4

f 129/2/4 137/2/4 133/2/4 132/2/4

f 58/2/4 57/2/4 136/2/4 135/2/4

f 56/2/4 61/2/4 139/2/4 137/2/4

f 65/2/4 64/2/4 143/2/4 142/2/4

f 69/2/4 68/2/4 73/2/4 64/2/4

f 75/2/4 74/2/4 149/2/4 148/2/4

f 143/2/4 150/2/4 153/2/4 152/2/4

f 73/2/4 77/2/4 155/2/4 150/2/4

f 1/2/5 4/2/5 79/2/5 78/2/5

f 5/1/5 1/1/5 78/1/5 82/1/5

f 7/2/5 10/2/5 85/2/5 84/2/5

f 11/1/5 7/1/5 84/1/5 157/1/5

f 157/2/5 84/2/5 89/2/5 88/2/5

f 13/2/5 16/2/5 17/2/5 159/2/5

f 159/1/5 17/1/5 96/1/5 161/1/5

f 161/2/5 96/2/5 93/2/5 92/2/5

f 17/2/5 20/2/5 97/2/5 96/2/5

f 163/1/5 169/1/5 172/1/5 164/1/5

f 21/2/5 24/2/5 169/2/5 163/2/5

f 164/2/5 172/2/5 101/2/5 100/2/5

f 25/2/5 28/2/5 105/2/5 104/2/5

f 29/2/5 32/2/5 25/2/5 167/2/5

f 167/1/5 25/1/5 104/1/5 168/1/5

f 168/2/5 104/2/5 109/2/5 108/2/5

f 36/2/5 39/2/5 116/2/5 115/2/5

f 118/2/5 117/2/5 120/2/5 119/2/5

f 40/2/5 43/2/5 38/2/5 37/2/5

f 48/2/5 51/2/5 128/2/5 127/2/5

f 52/2/5 55/2/5 50/2/5 49/2/5

f 130/2/5 129/2/5 132/2/5 131/2/5

f 50/2/5 58/2/5 135/2/5 129/2/5

f 62/2/5 65/2/5 142/2/5 141/2/5

f 66/2/5 69/2/5 64/2/5 63/2/5

f 70/2/5 63/2/5 144/2/5 145/2/5

f 64/2/5 75/2/5 148/2/5 143/2/5

f 144/2/5 143/2/5 152/2/5 151/2/5

f 2/2/6 81/2/6 80/2/6 3/2/6

f 6/1/6 83/1/6 81/1/6 2/1/6

f 8/2/6 87/2/6 86/2/6 9/2/6

f 12/1/6 158/1/6 87/1/6 8/1/6

f 158/2/6 91/2/6 90/2/6 87/2/6

f 14/2/6 160/2/6 18/2/6 15/2/6

f 160/1/6 162/1/6 99/1/6 18/1/6

f 162/2/6 95/2/6 94/2/6 99/2/6

f 18/2/6 99/2/6 98/2/6 19/2/6

f 166/1/6 165/1/6 171/1/6 170/1/6

f 22/2/6 166/2/6 170/2/6 23/2/6

f 165/2/6 103/2/6 102/2/6 171/2/6

f 26/2/6 107/2/6 106/2/6 27/2/6

f 30/2/6 33/2/6 26/2/6 31/2/6

f 112/2/6 111/2/6 110/2/6 107/2/6

f 34/2/6 114/2/6 113/2/6 35/2/6

f 123/2/6 122/2/6 121/2/6 124/2/6

f 41/2/6 44/2/6 47/2/6 42/2/6

f 45/2/6 126/2/6 125/2/6 46/2/6

f 53/2/6 59/2/6 56/2/6 54/2/6

f 138/2/6 134/2/6 133/2/6 137/2/6

f 56/2/6 137/2/6 136/2/6 57/2/6

f 60/2/6 140/2/6 139/2/6 61/2/6

f 67/2/6 72/2/6 73/2/6 68/2/6

f 71/2/6 147/2/6 146/2/6 72/2/6

f 73/2/6 150/2/6 149/2/6 74/2/6

f 146/2/6 154/2/6 153/2/6 150/2/6

f 76/2/6 156/2/6 155/2/6 77/2/6

# numNormals 6
# numTexCoords 2
# numVerts 172
# numFaces 156
