# MagicaVoxel @ ephtracy

# material
mtllib petalVox.mtl

# normals
vn -1 0 0
vn 1 0 0
vn 0 0 1
vn 0 0 -1
vn 0 -1 0
vn 0 1 0

# texcoords
vt 0.962891 0.5

# verts
v -7.5 27 2.5
v -7.5 28 2.5
v -7.5 28 1.5
v -7.5 27 1.5
v -5.5 28 -0.5
v -5.5 29 -0.5
v -5.5 29 -1.5
v -5.5 28 -1.5
v -5.5 28 3.5
v -5.5 29 3.5
v -5.5 29 2.5
v -5.5 28 2.5
v -6.5 28 2.5
v -6.5 29 2.5
v -6.5 29 1.5
v -6.5 28 1.5
v -7.5 28 0.5
v -7.5 27 0.5
v -6.5 28 0.5
v -6.5 29 0.5
v -6.5 29 -0.5
v -6.5 28 -0.5
v -7.5 28 -0.5
v -7.5 27 -0.5
v -6.5 27 -0.5
v -6.5 28 -1.5
v -6.5 27 -1.5
v -5.5 27 -1.5
v -5.5 28 -2.5
v -5.5 27 -2.5
v -5.5 27 4.5
v -5.5 28 4.5
v -5.5 27 3.5
v -6.5 27 3.5
v -6.5 28 3.5
v -6.5 27 2.5
v 0.5 27 -1.5
v 0.5 27 -2.5
v 0.5 28 -2.5
v 0.5 28 -1.5
v 0.5 27 4.5
v 0.5 27 3.5
v 0.5 28 3.5
v 0.5 28 4.5
v 1.5 28 3.5
v 1.5 28 2.5
v 1.5 29 2.5
v 1.5 29 3.5
v 1.5 28 -0.5
v 1.5 28 -1.5
v 1.5 29 -1.5
v 1.5 29 -0.5
v 2.5 27 3.5
v 2.5 27 2.5
v 2.5 28 2.5
v 2.5 28 3.5
v 2.5 28 1.5
v 2.5 29 1.5
v 2.5 29 2.5
v 2.5 28 0.5
v 2.5 28 -0.5
v 2.5 29 -0.5
v 2.5 29 0.5
v 2.5 27 -0.5
v 2.5 27 -1.5
v 2.5 28 -1.5
v 3.5 27 2.5
v 3.5 27 1.5
v 3.5 28 1.5
v 3.5 28 2.5
v 3.5 27 0.5
v 3.5 27 -0.5
v 3.5 28 -0.5
v 3.5 28 0.5
v 4.5 27 1.5
v 4.5 27 0.5
v 4.5 28 0.5
v 4.5 28 1.5
v 3.5 29 0.5
v 3.5 29 1.5
v -0.5 28 3.5
v 0.5 29 3.5
v -0.5 29 3.5
v 1.5 27 3.5
v -0.5 27 4.5
v -0.5 28 4.5
v -2.5 27 4.5
v -1.5 27 4.5
v -1.5 28 4.5
v -2.5 28 4.5
v -4.5 28 3.5
v -4.5 29 3.5
v -3.5 28 3.5
v -3.5 29 3.5
v -2.5 28 3.5
v -2.5 29 3.5
v -1.5 28 3.5
v -1.5 29 3.5
v -4.5 27 4.5
v -4.5 28 4.5
v -3.5 27 4.5
v -3.5 28 4.5
v -0.5 28 -1.5
v -0.5 29 -1.5
v 0.5 29 -1.5
v -0.5 27 -2.5
v -0.5 28 -2.5
v 1.5 27 -1.5
v -3.5 28 -1.5
v -3.5 29 -1.5
v -2.5 29 -1.5
v -2.5 28 -1.5
v -4.5 28 -1.5
v -4.5 29 -1.5
v -1.5 29 -1.5
v -1.5 28 -1.5
v -3.5 27 -2.5
v -3.5 28 -2.5
v -2.5 28 -2.5
v -2.5 27 -2.5
v -1.5 27 -2.5
v -1.5 28 -2.5
v -4.5 28 -2.5
v -4.5 27 -2.5
v -0.5 27 -1.5
v 0.5 27 -0.5
v 1.5 27 -0.5
v 1.5 27 0.5
v 2.5 27 0.5
v 1.5 27 1.5
v 2.5 27 1.5
v 1.5 27 2.5
v 0.5 27 2.5
v -0.5 27 3.5
v -5.5 27 2.5
v -4.5 27 2.5
v -4.5 27 3.5
v -3.5 27 2.5
v -3.5 27 3.5
v -2.5 27 2.5
v -2.5 27 3.5
v -1.5 27 2.5
v -1.5 27 3.5
v -6.5 27 1.5
v -5.5 27 1.5
v -4.5 27 1.5
v -3.5 27 1.5
v -2.5 27 1.5
v -1.5 27 1.5
v -0.5 27 2.5
v -5.5 27 0.5
v -5.5 27 -0.5
v -4.5 27 -0.5
v -4.5 27 0.5
v -3.5 27 -0.5
v -3.5 27 0.5
v -2.5 27 -0.5
v -2.5 27 0.5
v -4.5 27 -1.5
v -1.5 27 -0.5
v -1.5 27 -1.5
v -0.5 27 -0.5
v -3.5 27 -1.5
v -0.5 27 0.5
v 0.5 27 0.5
v -2.5 27 -1.5
v -0.5 27 1.5
v -6.5 27 0.5
v 0.5 27 1.5
v -1.5 27 0.5
v -0.5 29 -0.5
v 0.5 29 -0.5
v 0.5 29 0.5
v 1.5 29 0.5
v 0.5 29 1.5
v 1.5 29 1.5
v 0.5 29 2.5
v -0.5 29 2.5
v -3.5 29 -0.5
v -2.5 29 -0.5
v -4.5 29 -0.5
v -2.5 29 0.5
v -1.5 29 0.5
v -1.5 29 -0.5
v -0.5 29 0.5
v -3.5 29 0.5
v -4.5 29 2.5
v -3.5 29 2.5
v -2.5 29 2.5
v -5.5 29 1.5
v -4.5 29 0.5
v -0.5 29 1.5
v -1.5 29 2.5
v -5.5 29 0.5
v -2.5 29 1.5
v -1.5 29 1.5
v -3.5 29 1.5
v -4.5 29 1.5

# faces

usemtl palette

f 1/1/1 2/1/1 3/1/1 4/1/1

f 5/1/1 6/1/1 7/1/1 8/1/1

f 9/1/1 10/1/1 11/1/1 12/1/1

f 13/1/1 14/1/1 15/1/1 16/1/1

f 4/1/1 3/1/1 17/1/1 18/1/1

f 19/1/1 20/1/1 21/1/1 22/1/1

f 18/1/1 17/1/1 23/1/1 24/1/1

f 25/1/1 22/1/1 26/1/1 27/1/1

f 28/1/1 8/1/1 29/1/1 30/1/1

f 16/1/1 15/1/1 20/1/1 19/1/1

f 31/1/1 32/1/1 9/1/1 33/1/1

f 34/1/1 35/1/1 13/1/1 36/1/1

f 37/1/2 38/1/2 39/1/2 40/1/2

f 41/1/2 42/1/2 43/1/2 44/1/2

f 45/1/2 46/1/2 47/1/2 48/1/2

f 49/1/2 50/1/2 51/1/2 52/1/2

f 53/1/2 54/1/2 55/1/2 56/1/2

f 55/1/2 57/1/2 58/1/2 59/1/2

f 60/1/2 61/1/2 62/1/2 63/1/2

f 64/1/2 65/1/2 66/1/2 61/1/2

f 67/1/2 68/1/2 69/1/2 70/1/2

f 71/1/2 72/1/2 73/1/2 74/1/2

f 75/1/2 76/1/2 77/1/2 78/1/2

f 69/1/2 74/1/2 79/1/2 80/1/2

f 81/1/3 43/1/3 82/1/3 83/1/3

f 42/1/3 84/1/3 45/1/3 43/1/3

f 85/1/3 41/1/3 44/1/3 86/1/3

f 1/1/3 36/1/3 13/1/3 2/1/3

f 87/1/3 88/1/3 89/1/3 90/1/3

f 9/1/3 91/1/3 92/1/3 10/1/3

f 91/1/3 93/1/3 94/1/3 92/1/3

f 93/1/3 95/1/3 96/1/3 94/1/3

f 13/1/3 12/1/3 11/1/3 14/1/3

f 97/1/3 81/1/3 83/1/3 98/1/3

f 88/1/3 85/1/3 86/1/3 89/1/3

f 95/1/3 97/1/3 98/1/3 96/1/3

f 31/1/3 99/1/3 100/1/3 32/1/3

f 99/1/3 101/1/3 102/1/3 100/1/3

f 101/1/3 87/1/3 90/1/3 102/1/3

f 34/1/3 33/1/3 9/1/3 35/1/3

f 43/1/3 45/1/3 48/1/3 82/1/3

f 84/1/3 53/1/3 56/1/3 45/1/3

f 46/1/3 55/1/3 59/1/3 47/1/3

f 54/1/3 67/1/3 70/1/3 55/1/3

f 68/1/3 75/1/3 78/1/3 69/1/3

f 57/1/3 69/1/3 80/1/3 58/1/3

f 103/1/4 104/1/4 105/1/4 40/1/4

f 106/1/4 107/1/4 39/1/4 38/1/4

f 37/1/4 40/1/4 50/1/4 108/1/4

f 109/1/4 110/1/4 111/1/4 112/1/4

f 113/1/4 114/1/4 110/1/4 109/1/4

f 8/1/4 7/1/4 114/1/4 113/1/4

f 112/1/4 111/1/4 115/1/4 116/1/4

f 117/1/4 118/1/4 119/1/4 120/1/4

f 116/1/4 115/1/4 104/1/4 103/1/4

f 121/1/4 122/1/4 107/1/4 106/1/4

f 22/1/4 21/1/4 6/1/4 5/1/4

f 24/1/4 23/1/4 22/1/4 25/1/4

f 27/1/4 26/1/4 8/1/4 28/1/4

f 30/1/4 29/1/4 123/1/4 124/1/4

f 120/1/4 119/1/4 122/1/4 121/1/4

f 124/1/4 123/1/4 118/1/4 117/1/4

f 40/1/4 105/1/4 51/1/4 50/1/4

f 49/1/4 52/1/4 62/1/4 61/1/4

f 108/1/4 50/1/4 66/1/4 65/1/4

f 64/1/4 61/1/4 73/1/4 72/1/4

f 71/1/4 74/1/4 77/1/4 76/1/4

f 60/1/4 63/1/4 79/1/4 74/1/4

f 125/1/5 106/1/5 38/1/5 37/1/5

f 126/1/5 37/1/5 108/1/5 127/1/5

f 128/1/5 127/1/5 64/1/5 129/1/5

f 130/1/5 128/1/5 129/1/5 131/1/5

f 132/1/5 130/1/5 131/1/5 54/1/5

f 42/1/5 133/1/5 132/1/5 84/1/5

f 85/1/5 134/1/5 42/1/5 41/1/5

f 33/1/5 135/1/5 136/1/5 137/1/5

f 137/1/5 136/1/5 138/1/5 139/1/5

f 139/1/5 138/1/5 140/1/5 141/1/5

f 141/1/5 140/1/5 142/1/5 143/1/5

f 1/1/5 4/1/5 144/1/5 36/1/5

f 36/1/5 144/1/5 145/1/5 135/1/5

f 135/1/5 145/1/5 146/1/5 136/1/5

f 136/1/5 146/1/5 147/1/5 138/1/5

f 138/1/5 147/1/5 148/1/5 140/1/5

f 140/1/5 148/1/5 149/1/5 142/1/5

f 143/1/5 142/1/5 150/1/5 134/1/5

f 151/1/5 152/1/5 153/1/5 154/1/5

f 154/1/5 153/1/5 155/1/5 156/1/5

f 156/1/5 155/1/5 157/1/5 158/1/5

f 152/1/5 28/1/5 159/1/5 153/1/5

f 160/1/5 161/1/5 125/1/5 162/1/5

f 87/1/5 141/1/5 143/1/5 88/1/5

f 153/1/5 159/1/5 163/1/5 155/1/5

f 164/1/5 162/1/5 126/1/5 165/1/5

f 155/1/5 163/1/5 166/1/5 157/1/5

f 163/1/5 117/1/5 120/1/5 166/1/5

f 142/1/5 149/1/5 167/1/5 150/1/5

f 4/1/5 18/1/5 168/1/5 144/1/5

f 144/1/5 168/1/5 151/1/5 145/1/5

f 145/1/5 151/1/5 154/1/5 146/1/5

f 161/1/5 121/1/5 106/1/5 125/1/5

f 162/1/5 125/1/5 37/1/5 126/1/5

f 165/1/5 126/1/5 127/1/5 128/1/5

f 169/1/5 165/1/5 128/1/5 130/1/5

f 133/1/5 169/1/5 130/1/5 132/1/5

f 134/1/5 150/1/5 133/1/5 42/1/5

f 88/1/5 143/1/5 134/1/5 85/1/5

f 146/1/5 154/1/5 156/1/5 147/1/5

f 147/1/5 156/1/5 158/1/5 148/1/5

f 148/1/5 158/1/5 170/1/5 149/1/5

f 149/1/5 170/1/5 164/1/5 167/1/5

f 18/1/5 24/1/5 25/1/5 168/1/5

f 168/1/5 25/1/5 152/1/5 151/1/5

f 157/1/5 166/1/5 161/1/5 160/1/5

f 158/1/5 157/1/5 160/1/5 170/1/5

f 170/1/5 160/1/5 162/1/5 164/1/5

f 25/1/5 27/1/5 28/1/5 152/1/5

f 167/1/5 164/1/5 165/1/5 169/1/5

f 28/1/5 30/1/5 124/1/5 159/1/5

f 166/1/5 120/1/5 121/1/5 161/1/5

f 150/1/5 167/1/5 169/1/5 133/1/5

f 159/1/5 124/1/5 117/1/5 163/1/5

f 31/1/5 33/1/5 137/1/5 99/1/5

f 99/1/5 137/1/5 139/1/5 101/1/5

f 101/1/5 139/1/5 141/1/5 87/1/5

f 34/1/5 36/1/5 135/1/5 33/1/5

f 84/1/5 132/1/5 54/1/5 53/1/5

f 127/1/5 108/1/5 65/1/5 64/1/5

f 54/1/5 131/1/5 68/1/5 67/1/5

f 131/1/5 129/1/5 71/1/5 68/1/5

f 129/1/5 64/1/5 72/1/5 71/1/5

f 68/1/5 71/1/5 76/1/5 75/1/5

f 171/1/6 172/1/6 105/1/6 104/1/6

f 173/1/6 174/1/6 52/1/6 172/1/6

f 175/1/6 176/1/6 174/1/6 173/1/6

f 177/1/6 47/1/6 176/1/6 175/1/6

f 83/1/6 82/1/6 177/1/6 178/1/6

f 103/1/6 40/1/6 39/1/6 107/1/6

f 179/1/6 180/1/6 111/1/6 110/1/6

f 86/1/6 44/1/6 43/1/6 81/1/6

f 2/1/6 13/1/6 16/1/6 3/1/6

f 181/1/6 179/1/6 110/1/6 114/1/6

f 6/1/6 181/1/6 114/1/6 7/1/6

f 90/1/6 89/1/6 97/1/6 95/1/6

f 182/1/6 183/1/6 184/1/6 180/1/6

f 180/1/6 184/1/6 115/1/6 111/1/6

f 183/1/6 185/1/6 171/1/6 184/1/6

f 109/1/6 112/1/6 119/1/6 118/1/6

f 186/1/6 182/1/6 180/1/6 179/1/6

f 10/1/6 92/1/6 187/1/6 11/1/6

f 92/1/6 94/1/6 188/1/6 187/1/6

f 94/1/6 96/1/6 189/1/6 188/1/6

f 14/1/6 11/1/6 190/1/6 15/1/6

f 191/1/6 186/1/6 179/1/6 181/1/6

f 3/1/6 16/1/6 19/1/6 17/1/6

f 184/1/6 171/1/6 104/1/6 115/1/6

f 185/1/6 173/1/6 172/1/6 171/1/6

f 192/1/6 175/1/6 173/1/6 185/1/6

f 178/1/6 177/1/6 175/1/6 192/1/6

f 98/1/6 83/1/6 178/1/6 193/1/6

f 116/1/6 103/1/6 107/1/6 122/1/6

f 194/1/6 191/1/6 181/1/6 6/1/6

f 89/1/6 86/1/6 81/1/6 97/1/6

f 20/1/6 194/1/6 6/1/6 21/1/6

f 17/1/6 19/1/6 22/1/6 23/1/6

f 195/1/6 196/1/6 183/1/6 182/1/6

f 22/1/6 5/1/6 8/1/6 26/1/6

f 196/1/6 192/1/6 185/1/6 183/1/6

f 8/1/6 113/1/6 123/1/6 29/1/6

f 197/1/6 195/1/6 182/1/6 186/1/6

f 193/1/6 178/1/6 192/1/6 196/1/6

f 96/1/6 98/1/6 193/1/6 189/1/6

f 112/1/6 116/1/6 122/1/6 119/1/6

f 113/1/6 109/1/6 118/1/6 123/1/6

f 11/1/6 187/1/6 198/1/6 190/1/6

f 198/1/6 197/1/6 186/1/6 191/1/6

f 187/1/6 188/1/6 197/1/6 198/1/6

f 188/1/6 189/1/6 195/1/6 197/1/6

f 189/1/6 193/1/6 196/1/6 195/1/6

f 15/1/6 190/1/6 194/1/6 20/1/6

f 190/1/6 198/1/6 191/1/6 194/1/6

f 32/1/6 100/1/6 91/1/6 9/1/6

f 100/1/6 102/1/6 93/1/6 91/1/6

f 102/1/6 90/1/6 95/1/6 93/1/6

f 35/1/6 9/1/6 12/1/6 13/1/6

f 82/1/6 48/1/6 47/1/6 177/1/6

f 172/1/6 52/1/6 51/1/6 105/1/6

f 45/1/6 56/1/6 55/1/6 46/1/6

f 47/1/6 59/1/6 58/1/6 176/1/6

f 174/1/6 63/1/6 62/1/6 52/1/6

f 176/1/6 58/1/6 63/1/6 174/1/6

f 49/1/6 61/1/6 66/1/6 50/1/6

f 55/1/6 70/1/6 69/1/6 57/1/6

f 60/1/6 74/1/6 73/1/6 61/1/6

f 69/1/6 78/1/6 77/1/6 74/1/6

f 58/1/6 80/1/6 79/1/6 63/1/6

# numNormals 6
# numTexCoords 1
# numVerts 198
# numFaces 196
